<svg width="170" height="168" viewBox="0 0 170 168" fill="none" xmlns="http://www.w3.org/2000/svg">
<path d="M118.628 82.2268C118.628 89.9526 123.606 94.5769 125.741 99.6278C125.941 100.101 126.116 100.579 126.259 101.062C116.965 101.062 87 109 93.7012 122.412C93.711 122.421 93.7207 122.429 93.7305 122.438L93.7557 122.46C91.4999 127.109 91.8666 133.623 95.8904 138.291C93.8995 143.45 95.9062 149.787 99.6474 153.184C98.6617 156.69 99.1328 159.674 101.057 162.076C105.738 167.918 117.34 168 127.15 168L127.803 168C138.877 167.996 147.94 164.494 155.223 161.68C158.882 160.265 163.667 158.515 167.298 158.457C168.798 158.433 170 157.369 170 156.066V113.479C170 112.842 169.706 112.23 169.184 111.782C160.099 103.984 156.192 95.7274 148.746 89.248C145.351 86.2932 144.116 81.8299 142.922 77.5136C141.902 73.8279 139.769 66 135.14 66C129.636 66 118.628 67.5938 118.628 82.2268Z" fill="white" stroke="white"/>
<path d="M126.259 101.062C126.116 100.579 125.941 100.101 125.741 99.6278C103.831 99.6091 81.9215 99.54 60.0108 99.54C52.8832 99.54 46.5 103.559 46.5 110C46.5 116.536 50.6596 122.412 58 122.412H93.7012C87 109 116.965 101.062 126.259 101.062Z" fill="white"  stroke="white" />
<path d="M51.3723 85.7732C51.3723 78.0474 46.3936 73.4231 44.2593 68.3722C44.0593 67.8987 43.8842 67.4214 43.7406 66.9375C53.0348 66.9375 83 59 76.2988 45.5879C76.289 45.5794 76.2793 45.5708 76.2696 45.5623L76.2443 45.5404C78.5001 40.8913 78.1334 34.3768 74.1096 29.7087C76.1005 24.5499 74.0938 18.213 70.3526 14.8157C71.3383 11.3099 70.8672 8.32616 68.9426 5.92418C64.2617 0.0822912 52.6603 9.06579e-06 42.8498 8.20812e-06L42.1973 0.000214145C31.1231 0.0035999 22.0598 3.50606 14.7773 6.32043C11.1178 7.73468 6.3328 9.48541 2.70233 9.54338C1.20244 9.56728 7.98777e-06 10.6305 7.87385e-06 11.9336L4.15078e-06 54.5206C4.09505e-06 55.1581 0.294019 55.7699 0.815998 56.2181C9.9011 64.0164 13.8077 72.2726 21.2542 78.752C24.6493 81.7068 25.8841 86.1701 27.0778 90.4864C28.0977 94.1721 30.231 102 34.8598 102C40.364 102 51.3723 100.406 51.3723 85.7732Z" fill="white"  stroke="white"/>
<path d="M43.7406 66.9375C43.8842 67.4214 44.0593 67.8987 44.2593 68.3722C66.1693 68.3909 88.0785 68.46 109.989 68.46C117.117 68.46 123.5 64.4413 123.5 58C123.5 51.4641 119.34 45.5879 112 45.5879L76.2988 45.5879C83 59 53.0348 66.9375 43.7406 66.9375Z" fill="white"  stroke="white"/>
</svg>
