<svg xmlns="http://www.w3.org/2000/svg" width="60" height="40">
  <path fill="white"
    d="M56.3 22.6c0 1.2-.4 2.3-1.2 3.2s-2 1.6-3.4 1.6H22.2a.1.1 90 0 0 0 .2c1 1.2 1.7 2.3 2.2 3.3.4 1 .6 2 .6 2.9a6 6 0 0 1-1.5 4c-.9.8-2 1.4-3 1.4a2.1 2.1 90 0 1-2-1 14 14 90 0 0-6-6.2c-2-1-4-1.4-5.7-2.8-.5-.4-.7-1-.9-1.5l-.5-2.6H1.1A1 1 90 0 1 0 24V5.9c0-.7.4-1 1-1l3.2-.2c.5 0 1.3-.5 2.1-1l2-1.4C9.8 1 11.2 0 13 0h16.7A4.1 4.1 90 0 1 33 6.5a.1.1 90 0 0 0 .1 4.1 4.1 90 0 1 1.6 6.1v.2a4.1 4.1 90 0 1 2 5.5.1.1 90 0 0 0 .2H52c1.3 0 2.5.4 3.2 1.2a4 4 90 0 1 1.1 2.8z" />
</svg>
